<svg version="1.1" id="Layer_1" xmlns="http://www.w3.org/2000/svg" xmlns:xlink="http://www.w3.org/1999/xlink" x="0px" y="0px"
	 width="100%" viewBox="0 0 1024 200" enable-background="new 0 0 1024 200" xml:space="preserve">
<path fill="#1A1919" opacity="1.000000" stroke="none" 
	d="
M766.000000,201.000000 
	C510.666656,201.000000 255.833328,201.000000 1.000000,201.000000 
	C1.000000,134.333328 1.000000,67.666664 1.000000,1.000000 
	C342.333344,1.000000 683.666687,1.000000 1025.000000,1.000000 
	C1025.000000,67.666664 1025.000000,134.333328 1025.000000,201.000000 
	C938.833313,201.000000 852.666687,201.000000 766.000000,201.000000 
M146.885773,99.647163 
	C152.191971,89.433235 150.021301,80.238586 140.576172,74.726280 
	C105.118980,54.032963 69.527107,33.569878 34.116508,12.797528 
	C20.421343,4.763750 6.500188,14.668360 6.715761,28.693048 
	C7.340365,69.328468 6.932056,109.979698 6.939104,150.624725 
	C6.941290,163.230637 12.495112,169.310806 24.922998,171.272491 
	C24.933437,173.269699 24.947201,175.266907 24.953781,177.264130 
	C24.999872,191.252014 35.328739,197.217422 47.524326,190.205307 
	C65.399498,179.927582 83.224319,169.562286 101.065582,159.225647 
	C118.331497,149.222366 135.656906,139.319412 152.829330,129.158005 
	C163.535202,122.823029 163.429611,110.803444 152.850525,104.269035 
	C150.730347,102.959450 148.599335,101.667366 146.885773,99.647163 
M486.719116,111.021439 
	C486.367096,113.291733 486.015076,115.562027 485.663055,117.832321 
	C485.326416,117.810585 484.989807,117.788849 484.653198,117.767113 
	C482.723450,102.854477 480.793671,87.941833 478.855499,72.964188 
	C472.068604,72.964188 465.655731,72.964188 459.026611,72.964188 
	C457.313751,88.613991 455.627136,104.024506 453.940491,119.435020 
	C453.662933,119.429924 453.385406,119.424828 453.107849,119.419724 
	C451.154266,103.959267 449.200684,88.498810 447.245789,73.027802 
	C440.573822,73.027802 434.343384,73.027802 427.824158,73.027802 
	C431.668488,104.592094 435.468506,135.792694 439.292297,167.188263 
	C447.717773,167.188263 455.957428,167.188263 464.456421,167.188263 
	C466.372070,150.165253 468.256470,133.419754 470.140900,116.674263 
	C470.360870,116.681648 470.580872,116.689034 470.800842,116.696419 
	C472.921173,133.505951 475.041534,150.315475 477.175873,167.236053 
	C484.853485,167.236053 492.278198,167.236053 499.900330,167.236053 
	C503.949310,135.713242 507.967804,104.427872 512.019104,72.887131 
	C504.711273,72.887131 497.938019,72.887131 490.620087,72.887131 
	C489.344727,85.385239 488.081696,97.762917 486.719116,111.021439 
M187.566666,56.069080 
	C184.814957,56.069080 182.063248,56.069080 179.343994,56.069080 
	C179.343994,93.537209 179.343994,130.265305 179.343994,166.950729 
	C191.677383,166.950729 203.813431,167.453369 215.879410,166.751526 
	C222.516281,166.365479 227.441879,161.962494 229.930756,155.496536 
	C234.096375,144.674545 234.686218,133.498611 233.152817,122.111580 
	C232.169724,114.811012 229.680862,108.551537 221.691742,105.531921 
	C229.406555,102.477859 232.061859,96.516449 232.370026,89.246208 
	C232.552719,84.936432 232.585403,80.583366 232.200546,76.293282 
	C230.966034,62.531898 224.468323,56.502304 210.524521,56.133488 
	C203.204865,55.939880 195.876373,56.079784 187.566666,56.069080 
M681.122314,72.041603 
	C681.122314,73.444542 681.122314,74.847488 681.122314,75.968887 
	C677.599060,74.505417 674.575256,72.568359 671.316467,72.015022 
	C657.982422,69.750916 648.430420,77.795456 648.116028,92.025909 
	C647.715027,110.181404 647.951477,128.352158 648.031433,146.515808 
	C648.043030,149.153442 648.540588,151.825638 649.107605,154.417435 
	C651.039429,163.247574 656.461182,167.583527 665.519958,168.403275 
	C672.706482,169.053604 677.359863,165.679337 681.326965,159.955048 
	C681.326965,162.364914 681.326965,164.774796 681.326965,167.199066 
	C689.031555,167.199066 696.282959,167.199066 703.552612,167.199066 
	C703.552612,129.855087 703.552612,92.809555 703.552612,55.863892 
	C695.939514,55.863892 688.697815,55.863892 681.122314,55.863892 
	C681.122314,61.191628 681.122314,66.166931 681.122314,72.041603 
M712.311707,111.499947 
	C712.315247,118.999062 711.992310,126.516968 712.422913,133.991486 
	C712.784302,140.265747 713.344360,146.678818 715.020935,152.694794 
	C718.192200,164.074509 726.658447,169.182755 738.496399,168.366821 
	C745.457031,167.887054 750.394775,164.191010 754.550964,158.823700 
	C759.522522,168.400467 759.522522,168.400467 766.975708,166.931274 
	C766.975708,145.752411 766.975708,124.525398 766.975708,103.099632 
	C757.954590,103.099632 749.249146,103.099632 740.473511,103.099632 
	C740.473511,109.535866 740.473511,115.597404 740.473511,121.669914 
	C742.451660,121.881027 744.055786,122.052223 745.910706,122.250191 
	C745.910706,128.798996 746.122803,135.106842 745.821899,141.390121 
	C745.669800,144.564529 744.738464,147.899780 740.462830,147.953552 
	C735.950317,148.010330 734.922180,144.760376 734.809021,141.222610 
	C734.532104,132.568649 734.406494,123.907692 734.366882,115.248871 
	C734.318054,104.584808 734.301086,93.917702 734.516357,83.256874 
	C734.593750,79.424767 735.637512,75.726982 740.668701,75.823448 
	C745.757629,75.921021 745.637939,79.931992 745.861816,83.370544 
	C746.084534,86.792191 745.910522,90.239670 745.910522,93.663849 
	C753.510925,93.663849 760.412170,93.663849 768.706665,93.663849 
	C767.075684,85.015709 766.071899,76.779510 763.789124,68.914558 
	C762.766907,65.392853 759.740479,61.834976 756.665466,59.629120 
	C739.085449,47.018017 714.658203,58.133198 712.992065,79.537956 
	C712.192139,89.814003 712.503723,100.176559 712.311707,111.499947 
M775.872131,113.499954 
	C775.872131,131.433411 775.872131,149.366867 775.872131,167.215683 
	C783.899658,167.215683 791.316528,167.215683 799.083252,167.215683 
	C799.083252,165.308853 799.083191,163.670822 799.083252,162.032791 
	C799.083252,141.049088 799.074829,120.065376 799.098389,99.081696 
	C799.100403,97.259727 798.754089,95.119453 799.565857,93.694595 
	C800.646973,91.797005 802.980286,88.977417 804.280273,89.219078 
	C806.285095,89.591751 808.217590,91.999596 809.502930,93.983383 
	C810.282532,95.186668 809.850403,97.217224 809.851562,98.876228 
	C809.866760,119.859924 809.861633,140.843628 809.861633,161.827332 
	C809.861694,163.612854 809.861694,165.398392 809.861694,167.131714 
	C817.624451,167.131714 824.844299,167.131714 832.058838,167.131714 
	C832.058838,140.991989 832.267944,115.206284 831.940491,89.427391 
	C831.832214,80.905647 826.442139,74.408974 819.580811,72.365196 
	C811.218811,69.874405 805.639282,71.910767 798.947937,80.362381 
	C798.947937,71.698608 798.947937,63.675545 798.947937,55.817581 
	C791.013794,55.817581 783.602783,55.817581 775.872131,55.817581 
	C775.872131,74.914413 775.872131,93.707184 775.872131,113.499954 
M518.855164,128.499390 
	C518.884277,133.163513 518.791321,137.832184 518.964539,142.490952 
	C519.570801,158.794785 528.761780,167.940720 545.065796,168.474854 
	C547.717590,168.561707 550.401184,168.429169 553.037170,168.118530 
	C565.955078,166.596237 574.352783,158.644058 574.929260,145.668716 
	C575.645447,129.549133 575.873413,113.349403 575.125427,97.239388 
	C574.356079,80.668579 562.801270,71.032425 546.262756,71.549820 
	C529.718262,72.067406 519.333984,82.395088 518.945190,99.014473 
	C518.723206,108.505043 518.872864,118.004303 518.855164,128.499390 
M896.953064,145.070480 
	C896.989258,129.241409 897.360168,113.404037 896.967102,97.585640 
	C896.577576,81.913048 885.425598,71.765923 869.311707,71.523430 
	C853.311523,71.282646 841.690918,80.782234 841.010010,96.208931 
	C840.283813,112.662827 840.643616,129.182938 841.059998,145.660706 
	C841.247437,153.077179 844.498657,159.559021 850.864746,163.915176 
	C868.678650,176.104813 892.292908,166.862183 896.953064,145.070480 
M279.282013,167.099121 
	C289.087067,164.463638 295.250671,157.737122 295.806488,148.041733 
	C296.805298,130.619156 297.417450,113.042557 296.227081,95.664841 
	C295.121216,79.519836 283.170715,70.797089 266.967499,71.603455 
	C251.104126,72.392906 240.842773,82.145645 240.260117,98.165909 
	C239.721451,112.977356 239.750809,127.838715 240.278915,142.651382 
	C240.794586,157.114319 248.045624,165.985382 260.646698,167.740067 
	C266.456390,168.549072 272.521118,167.526672 279.282013,167.099121 
M587.331970,84.019531 
	C586.013733,88.270432 583.642212,92.501907 583.563477,96.775642 
	C583.257202,113.389175 582.996704,130.059479 584.048767,146.624222 
	C584.871521,159.577789 593.179932,166.792603 606.175415,168.130722 
	C609.785828,168.502487 613.500916,168.497101 617.110840,168.118912 
	C629.736389,166.796143 638.044678,160.032654 638.917419,147.477646 
	C640.124817,130.107697 640.256592,112.563454 639.312805,95.177238 
	C638.643799,82.851974 630.469543,74.881905 619.567566,72.325752 
	C606.626038,69.291397 594.970947,73.365044 587.331970,84.019531 
M418.322968,100.886261 
	C419.967773,91.644264 421.612579,82.402267 423.287720,72.989746 
	C415.684875,72.989746 408.778595,72.989746 401.583771,72.989746 
	C399.286011,93.816589 397.016113,114.391068 394.746185,134.965546 
	C394.313446,134.929352 393.880707,134.893158 393.447968,134.856964 
	C391.560852,114.279366 389.673767,93.701775 387.782593,73.079636 
	C380.375397,73.079636 373.349945,73.079636 366.155304,73.079636 
	C368.009003,84.642883 369.801208,95.802872 371.586548,106.963966 
	C374.659851,126.176697 377.691467,145.396225 380.834351,164.597549 
	C381.395325,168.024704 380.107117,169.144958 376.838470,168.959808 
	C373.914856,168.794205 370.974457,168.924973 368.104797,168.924973 
	C368.104797,173.973877 368.104797,178.395813 368.104797,183.165985 
	C376.480011,183.165985 384.604431,183.214401 392.728058,183.152512 
	C401.034332,183.089249 404.289154,180.572067 405.742889,172.475052 
	C409.973633,148.911270 414.033295,125.316795 418.322968,100.886261 
M958.029846,100.918381 
	C958.613831,100.294075 959.633850,99.722778 959.717163,99.037605 
	C961.314270,85.900925 952.948914,74.264664 939.920288,72.239265 
	C934.900513,71.458923 929.553894,71.481056 924.533203,72.267654 
	C912.843262,74.099113 905.052856,81.793365 904.142212,91.731949 
	C903.169800,102.343964 905.990295,111.448021 914.961609,118.092194 
	C920.306335,122.050507 925.442200,126.291283 930.663879,130.415253 
	C935.219727,134.013367 937.105774,138.797699 936.573242,144.482819 
	C936.307068,147.325012 935.842407,150.372452 931.911560,150.357788 
	C928.048584,150.343384 926.750427,147.841827 926.687561,144.446396 
	C926.615356,140.542587 926.670837,136.636414 926.670837,132.717224 
	C918.510437,132.717224 911.393127,132.717224 903.177734,132.717224 
	C903.884094,139.399246 903.959473,145.902191 905.387939,152.092911 
	C907.006226,159.106262 911.779419,164.057724 918.777100,166.388535 
	C927.583923,169.321976 936.444214,169.317932 945.160583,166.055603 
	C952.352051,163.364014 957.117126,158.114960 958.917053,150.719360 
	C962.185791,137.288712 959.863159,125.180077 948.816406,115.903114 
	C943.348877,111.311569 937.287292,107.426147 931.834900,102.818428 
	C929.712708,101.024963 927.972229,98.313232 927.067444,95.673714 
	C926.115784,92.897621 926.827454,89.795845 930.523682,89.143463 
	C934.349670,88.468155 935.362000,91.346222 935.906677,94.244087 
	C936.294800,96.309166 936.260193,98.453697 936.404236,100.426094 
	C937.034729,100.654137 937.335388,100.856529 937.637207,100.858269 
	C944.128235,100.895668 950.619263,100.910629 958.029846,100.918381 
M974.635254,164.831894 
	C982.541626,170.732285 991.009827,168.086090 999.438843,166.926895 
	C999.438843,161.531708 999.438843,156.608414 999.438843,151.685135 
	C998.987915,152.026047 998.536926,152.366959 998.085999,152.707855 
	C996.444458,151.095352 993.407104,149.509415 993.375793,147.866226 
	C993.033752,129.908340 993.161499,111.941528 993.161499,93.874908 
	C995.498596,93.578461 997.552673,93.317902 999.330200,93.092422 
	C999.330200,87.183334 999.330200,81.775215 999.330200,76.350273 
	C997.143188,76.207108 995.345825,76.089439 993.134644,75.944687 
	C993.134644,69.381470 993.134644,62.958733 993.134644,56.307274 
	C985.647766,56.307274 978.587158,56.307274 970.922607,56.307274 
	C970.922607,63.038307 970.922607,69.564293 970.922607,76.041496 
	C968.559448,76.159668 966.802856,76.247513 965.166321,76.329353 
	C965.166321,82.303696 965.166321,87.723282 965.166321,93.249573 
	C967.213135,93.441116 968.981079,93.606567 971.068604,93.801918 
	C971.068604,95.642952 971.068604,97.289406 971.068604,98.935852 
	C971.068726,116.418289 970.872131,133.904510 971.208496,151.380493 
	C971.291382,155.688278 973.109131,159.962692 974.635254,164.831894 
M360.539612,114.500259 
	C360.539612,94.919388 360.539612,75.338516 360.539612,55.880081 
	C352.367859,55.880081 344.970612,55.880081 337.654114,55.880081 
	C337.654114,93.209198 337.654114,130.125977 337.654114,167.206360 
	C345.348846,167.206360 352.738525,167.206360 360.539551,167.206360 
	C360.539551,149.756409 360.539551,132.628342 360.539612,114.500259 
M305.195648,82.499931 
	C305.195648,110.715401 305.195648,138.930862 305.195648,167.290329 
	C313.197388,167.290329 320.472076,167.290329 328.012634,167.290329 
	C328.012634,130.033524 328.012634,92.990547 328.012634,55.802837 
	C320.374878,55.802837 312.960785,55.802837 305.195648,55.802837 
	C305.195648,64.570183 305.195648,73.035057 305.195648,82.499931 
z"/>
<path fill="#FDFDFD" opacity="1.000000" stroke="none" 
	d="
M486.768860,110.581017 
	C488.081696,97.762917 489.344727,85.385239 490.620087,72.887131 
	C497.938019,72.887131 504.711273,72.887131 512.019104,72.887131 
	C507.967804,104.427872 503.949310,135.713242 499.900330,167.236053 
	C492.278198,167.236053 484.853485,167.236053 477.175873,167.236053 
	C475.041534,150.315475 472.921173,133.505951 470.800842,116.696419 
	C470.580872,116.689034 470.360870,116.681648 470.140900,116.674263 
	C468.256470,133.419754 466.372070,150.165253 464.456421,167.188263 
	C455.957428,167.188263 447.717773,167.188263 439.292297,167.188263 
	C435.468506,135.792694 431.668488,104.592094 427.824158,73.027802 
	C434.343384,73.027802 440.573822,73.027802 447.245789,73.027802 
	C449.200684,88.498810 451.154266,103.959267 453.107849,119.419724 
	C453.385406,119.424828 453.662933,119.429924 453.940491,119.435020 
	C455.627136,104.024506 457.313751,88.613991 459.026611,72.964188 
	C465.655731,72.964188 472.068604,72.964188 478.855499,72.964188 
	C480.793671,87.941833 482.723450,102.854477 484.653198,117.767113 
	C484.989807,117.788849 485.326416,117.810585 485.663055,117.832321 
	C486.015076,115.562027 486.367096,113.291733 486.768860,110.581017 
z"/>
<path fill="#FCFCFC" opacity="1.000000" stroke="none" 
	d="
M188.059265,56.069080 
	C195.876373,56.079784 203.204865,55.939880 210.524521,56.133488 
	C224.468323,56.502304 230.966034,62.531898 232.200546,76.293282 
	C232.585403,80.583366 232.552719,84.936432 232.370026,89.246208 
	C232.061859,96.516449 229.406555,102.477859 221.691742,105.531921 
	C229.680862,108.551537 232.169724,114.811012 233.152817,122.111580 
	C234.686218,133.498611 234.096375,144.674545 229.930756,155.496536 
	C227.441879,161.962494 222.516281,166.365479 215.879410,166.751526 
	C203.813431,167.453369 191.677383,166.950729 179.343994,166.950729 
	C179.343994,130.265305 179.343994,93.537209 179.343994,56.069080 
	C182.063248,56.069080 184.814957,56.069080 188.059265,56.069080 
M211.923294,134.404327 
	C211.892334,130.751556 212.088974,127.079521 211.781876,123.450104 
	C211.186951,116.418884 208.093506,114.425713 201.193390,116.216774 
	C201.193390,126.664421 201.193390,137.091431 201.193390,147.763794 
	C205.822418,148.219727 209.833496,147.738327 211.291122,142.741745 
	C211.969269,140.417191 211.740707,137.828110 211.923294,134.404327 
M206.892273,97.846016 
	C207.993240,95.987190 209.758224,94.227066 210.052338,92.248322 
	C210.607315,88.514481 210.380142,84.654510 210.361938,80.847511 
	C210.328125,73.774422 208.476105,72.366028 201.267639,73.789055 
	C201.267639,81.830360 201.267639,89.871666 201.267639,97.965561 
	C203.042572,97.965561 204.531693,97.965561 206.892273,97.846016 
z"/>
<path fill="#FDFDFD" opacity="1.000000" stroke="none" 
	d="
M681.122314,71.591919 
	C681.122314,66.166931 681.122314,61.191628 681.122314,55.863892 
	C688.697815,55.863892 695.939514,55.863892 703.552612,55.863892 
	C703.552612,92.809555 703.552612,129.855087 703.552612,167.199066 
	C696.282959,167.199066 689.031555,167.199066 681.326965,167.199066 
	C681.326965,164.774796 681.326965,162.364914 681.326965,159.955048 
	C677.359863,165.679337 672.706482,169.053604 665.519958,168.403275 
	C656.461182,167.583527 651.039429,163.247574 649.107605,154.417435 
	C648.540588,151.825638 648.043030,149.153442 648.031433,146.515808 
	C647.951477,128.352158 647.715027,110.181404 648.116028,92.025909 
	C648.430420,77.795456 657.982422,69.750916 671.316467,72.015022 
	C674.575256,72.568359 677.599060,74.505417 681.122314,75.968887 
	C681.122314,74.847488 681.122314,73.444542 681.122314,71.591919 
M681.137634,111.501144 
	C681.137634,110.168777 681.200439,108.832909 681.126404,107.504669 
	C680.850098,102.547600 680.859680,97.535957 680.020569,92.672707 
	C679.772461,91.234650 677.049011,89.231522 675.521423,89.283867 
	C673.976624,89.336800 672.322632,91.464661 671.082458,92.982635 
	C670.434814,93.775307 670.387695,95.210800 670.386414,96.356308 
	C670.369263,111.673065 670.267212,126.992355 670.536133,142.304886 
	C670.600281,145.957977 670.918396,150.948257 676.255310,150.593567 
	C681.116333,150.270462 680.903015,145.515015 680.983154,141.976425 
	C681.205505,132.155045 681.108459,122.326454 681.137634,111.501144 
z"/>
<path fill="#FC3131" opacity="1.000000" stroke="none" 
	d="
M712.311829,110.999939 
	C712.503723,100.176559 712.192139,89.814003 712.992065,79.537956 
	C714.658203,58.133198 739.085449,47.018017 756.665466,59.629120 
	C759.740479,61.834976 762.766907,65.392853 763.789124,68.914558 
	C766.071899,76.779510 767.075684,85.015709 768.706665,93.663849 
	C760.412170,93.663849 753.510925,93.663849 745.910522,93.663849 
	C745.910522,90.239670 746.084534,86.792191 745.861816,83.370544 
	C745.637939,79.931992 745.757629,75.921021 740.668701,75.823448 
	C735.637512,75.726982 734.593750,79.424767 734.516357,83.256874 
	C734.301086,93.917702 734.318054,104.584808 734.366882,115.248871 
	C734.406494,123.907692 734.532104,132.568649 734.809021,141.222610 
	C734.922180,144.760376 735.950317,148.010330 740.462830,147.953552 
	C744.738464,147.899780 745.669800,144.564529 745.821899,141.390121 
	C746.122803,135.106842 745.910706,128.798996 745.910706,122.250191 
	C744.055786,122.052223 742.451660,121.881027 740.473511,121.669914 
	C740.473511,115.597404 740.473511,109.535866 740.473511,103.099632 
	C749.249146,103.099632 757.954590,103.099632 766.975708,103.099632 
	C766.975708,124.525398 766.975708,145.752411 766.975708,166.931274 
	C759.522522,168.400467 759.522522,168.400467 754.550964,158.823700 
	C750.394775,164.191010 745.457031,167.887054 738.496399,168.366821 
	C726.658447,169.182755 718.192200,164.074509 715.020935,152.694794 
	C713.344360,146.678818 712.784302,140.265747 712.422913,133.991486 
	C711.992310,126.516968 712.315247,118.999062 712.311829,110.999939 
z"/>
<path fill="#FFFFFF" opacity="1.000000" stroke="none" 
	d="
M775.872131,112.999954 
	C775.872131,93.707184 775.872131,74.914413 775.872131,55.817581 
	C783.602783,55.817581 791.013794,55.817581 798.947937,55.817581 
	C798.947937,63.675545 798.947937,71.698608 798.947937,80.362381 
	C805.639282,71.910767 811.218811,69.874405 819.580811,72.365196 
	C826.442139,74.408974 831.832214,80.905647 831.940491,89.427391 
	C832.267944,115.206284 832.058838,140.991989 832.058838,167.131714 
	C824.844299,167.131714 817.624451,167.131714 809.861694,167.131714 
	C809.861694,165.398392 809.861694,163.612854 809.861633,161.827332 
	C809.861633,140.843628 809.866760,119.859924 809.851562,98.876228 
	C809.850403,97.217224 810.282532,95.186668 809.502930,93.983383 
	C808.217590,91.999596 806.285095,89.591751 804.280273,89.219078 
	C802.980286,88.977417 800.646973,91.797005 799.565857,93.694595 
	C798.754089,95.119453 799.100403,97.259727 799.098389,99.081696 
	C799.074829,120.065376 799.083252,141.049088 799.083252,162.032791 
	C799.083191,163.670822 799.083252,165.308853 799.083252,167.215683 
	C791.316528,167.215683 783.899658,167.215683 775.872131,167.215683 
	C775.872131,149.366867 775.872131,131.433411 775.872131,112.999954 
z"/>
<path fill="#FBFBFB" opacity="1.000000" stroke="none" 
	d="
M518.855103,127.999519 
	C518.872864,118.004303 518.723206,108.505043 518.945190,99.014473 
	C519.333984,82.395088 529.718262,72.067406 546.262756,71.549820 
	C562.801270,71.032425 574.356079,80.668579 575.125427,97.239388 
	C575.873413,113.349403 575.645447,129.549133 574.929260,145.668716 
	C574.352783,158.644058 565.955078,166.596237 553.037170,168.118530 
	C550.401184,168.429169 547.717590,168.561707 545.065796,168.474854 
	C528.761780,167.940720 519.570801,158.794785 518.964539,142.490952 
	C518.791321,137.832184 518.884277,133.163513 518.855103,127.999519 
M552.466736,132.495575 
	C552.467041,121.837555 552.492554,111.179420 552.447815,100.521591 
	C552.438049,98.198349 552.717346,95.651154 551.871399,93.620354 
	C551.111023,91.794785 548.846924,89.206177 547.500549,89.349236 
	C545.617859,89.549278 543.670593,91.749046 542.341431,93.533195 
	C541.590332,94.541443 541.941040,96.430458 541.934814,97.923340 
	C541.904114,105.250595 541.918396,112.578049 541.920166,119.905434 
	C541.922119,127.898918 541.888245,135.892700 541.950073,143.885742 
	C541.977356,147.412277 542.558899,150.835022 547.114929,150.923065 
	C551.798096,151.013535 552.211182,147.403366 552.386414,143.981339 
	C552.564941,140.492874 552.452026,136.989517 552.466736,132.495575 
z"/>
<path fill="#FBFBFB" opacity="1.000000" stroke="none" 
	d="
M896.914185,145.520035 
	C892.292908,166.862183 868.678650,176.104813 850.864746,163.915176 
	C844.498657,159.559021 841.247437,153.077179 841.059998,145.660706 
	C840.643616,129.182938 840.283813,112.662827 841.010010,96.208931 
	C841.690918,80.782234 853.311523,71.282646 869.311707,71.523430 
	C885.425598,71.765923 896.577576,81.913048 896.967102,97.585640 
	C897.360168,113.404037 896.989258,129.241409 896.914185,145.520035 
M863.615723,123.499786 
	C863.688354,130.989624 863.650024,138.482986 863.888794,145.967529 
	C863.983398,148.932526 865.720520,151.594025 868.862793,150.748871 
	C870.865906,150.210129 872.338440,147.608353 873.965881,145.854614 
	C874.227173,145.573044 874.076965,144.887558 874.076965,144.388794 
	C874.077759,128.237122 874.077515,112.085449 874.058899,95.933800 
	C874.057922,95.106758 874.205200,93.971458 873.747986,93.508774 
	C872.149353,91.890884 870.415833,89.548958 868.537720,89.352341 
	C867.183533,89.210571 865.089294,91.813354 864.125549,93.619217 
	C863.339905,95.091415 863.641479,97.196121 863.632141,99.021233 
	C863.592163,106.847244 863.615479,114.673561 863.615723,123.499786 
z"/>
<path fill="#FDFDFD" opacity="1.000000" stroke="none" 
	d="
M278.876099,167.216904 
	C272.521118,167.526672 266.456390,168.549072 260.646698,167.740067 
	C248.045624,165.985382 240.794586,157.114319 240.278915,142.651382 
	C239.750809,127.838715 239.721451,112.977356 240.260117,98.165909 
	C240.842773,82.145645 251.104126,72.392906 266.967499,71.603455 
	C283.170715,70.797089 295.121216,79.519836 296.227081,95.664841 
	C297.417450,113.042557 296.805298,130.619156 295.806488,148.041733 
	C295.250671,157.737122 289.087067,164.463638 278.876099,167.216904 
M273.903320,138.394211 
	C273.902740,125.094795 273.926270,111.795311 273.891357,98.495987 
	C273.873993,91.888062 272.040924,88.612328 268.356506,89.073296 
	C262.796051,89.768982 263.162689,94.373207 263.134125,98.285034 
	C263.027283,112.913605 263.084686,127.543434 263.101196,142.172760 
	C263.102692,143.496902 262.763428,145.199020 263.434387,146.067078 
	C264.879944,147.937241 266.749054,150.404648 268.697327,150.653885 
	C270.123444,150.836334 272.575134,148.151321 273.428314,146.235962 
	C274.306976,144.263474 273.802582,141.674927 273.903320,138.394211 
z"/>
<path fill="#FDFDFD" opacity="1.000000" stroke="none" 
	d="
M587.558838,83.726822 
	C594.970947,73.365044 606.626038,69.291397 619.567566,72.325752 
	C630.469543,74.881905 638.643799,82.851974 639.312805,95.177238 
	C640.256592,112.563454 640.124817,130.107697 638.917419,147.477646 
	C638.044678,160.032654 629.736389,166.796143 617.110840,168.118912 
	C613.500916,168.497101 609.785828,168.502487 606.175415,168.130722 
	C593.179932,166.792603 584.871521,159.577789 584.048767,146.624222 
	C582.996704,130.059479 583.257202,113.389175 583.563477,96.775642 
	C583.642212,92.501907 586.013733,88.270432 587.558838,83.726822 
M613.804382,89.509956 
	C608.136230,88.714775 606.233215,90.659515 606.193420,97.844650 
	C606.110474,112.823349 606.138428,127.802963 606.207947,142.781799 
	C606.216248,144.576538 606.458313,146.493500 607.127502,148.135605 
	C608.434509,151.343002 612.857300,152.278091 614.908875,149.643341 
	C616.125366,148.081100 616.847961,145.718216 616.867737,143.706207 
	C617.021973,128.062912 617.051086,112.416023 616.839905,96.774025 
	C616.809021,94.485603 615.302795,92.217110 613.804382,89.509956 
z"/>
<path fill="#FDFDFD" opacity="1.000000" stroke="none" 
	d="
M418.241486,101.310310 
	C414.033295,125.316795 409.973633,148.911270 405.742889,172.475052 
	C404.289154,180.572067 401.034332,183.089249 392.728058,183.152512 
	C384.604431,183.214401 376.480011,183.165985 368.104797,183.165985 
	C368.104797,178.395813 368.104797,173.973877 368.104797,168.924973 
	C370.974457,168.924973 373.914856,168.794205 376.838470,168.959808 
	C380.107117,169.144958 381.395325,168.024704 380.834351,164.597549 
	C377.691467,145.396225 374.659851,126.176697 371.586548,106.963966 
	C369.801208,95.802872 368.009003,84.642883 366.155304,73.079636 
	C373.349945,73.079636 380.375397,73.079636 387.782593,73.079636 
	C389.673767,93.701775 391.560852,114.279366 393.447968,134.856964 
	C393.880707,134.893158 394.313446,134.929352 394.746185,134.965546 
	C397.016113,114.391068 399.286011,93.816589 401.583771,72.989746 
	C408.778595,72.989746 415.684875,72.989746 423.287720,72.989746 
	C421.612579,82.402267 419.967773,91.644264 418.241486,101.310310 
z"/>
<path fill="#FE3232" opacity="1.000000" stroke="none" 
	d="
M146.473328,100.367210 
	C148.599335,101.667366 150.730347,102.959450 152.850525,104.269035 
	C163.429611,110.803444 163.535202,122.823029 152.829330,129.158005 
	C135.656906,139.319412 118.331497,149.222366 101.065582,159.225647 
	C83.224319,169.562286 65.399498,179.927582 47.524326,190.205307 
	C35.328739,197.217422 24.999872,191.252014 24.953781,177.264130 
	C24.947201,175.266907 24.933437,173.269699 25.325657,170.734161 
	C28.652910,169.106216 31.802475,168.406372 34.468052,166.867950 
	C69.388443,146.713654 104.255310,126.466339 139.080338,106.147667 
	C141.757523,104.585663 144.018753,102.310753 146.473328,100.367210 
z"/>
<path fill="#FCFCFC" opacity="1.000000" stroke="none" 
	d="
M957.570068,100.924156 
	C950.619263,100.910629 944.128235,100.895668 937.637207,100.858269 
	C937.335388,100.856529 937.034729,100.654137 936.404236,100.426094 
	C936.260193,98.453697 936.294800,96.309166 935.906677,94.244087 
	C935.362000,91.346222 934.349670,88.468155 930.523682,89.143463 
	C926.827454,89.795845 926.115784,92.897621 927.067444,95.673714 
	C927.972229,98.313232 929.712708,101.024963 931.834900,102.818428 
	C937.287292,107.426147 943.348877,111.311569 948.816406,115.903114 
	C959.863159,125.180077 962.185791,137.288712 958.917053,150.719360 
	C957.117126,158.114960 952.352051,163.364014 945.160583,166.055603 
	C936.444214,169.317932 927.583923,169.321976 918.777100,166.388535 
	C911.779419,164.057724 907.006226,159.106262 905.387939,152.092911 
	C903.959473,145.902191 903.884094,139.399246 903.177734,132.717224 
	C911.393127,132.717224 918.510437,132.717224 926.670837,132.717224 
	C926.670837,136.636414 926.615356,140.542587 926.687561,144.446396 
	C926.750427,147.841827 928.048584,150.343384 931.911560,150.357788 
	C935.842407,150.372452 936.307068,147.325012 936.573242,144.482819 
	C937.105774,138.797699 935.219727,134.013367 930.663879,130.415253 
	C925.442200,126.291283 920.306335,122.050507 914.961609,118.092194 
	C905.990295,111.448021 903.169800,102.343964 904.142212,91.731949 
	C905.052856,81.793365 912.843262,74.099113 924.533203,72.267654 
	C929.553894,71.481056 934.900513,71.458923 939.920288,72.239265 
	C952.948914,74.264664 961.314270,85.900925 959.717163,99.037605 
	C959.633850,99.722778 958.613831,100.294075 957.570068,100.924156 
z"/>
<path fill="#FBF9F9" opacity="1.000000" stroke="none" 
	d="
M146.679550,100.007187 
	C144.018753,102.310753 141.757523,104.585663 139.080338,106.147667 
	C104.255310,126.466339 69.388443,146.713654 34.468052,166.867950 
	C31.802475,168.406372 28.652910,169.106216 25.337097,170.294449 
	C12.495112,169.310806 6.941290,163.230637 6.939104,150.624725 
	C6.932056,109.979698 7.340365,69.328468 6.715761,28.693048 
	C6.500188,14.668360 20.421343,4.763750 34.116508,12.797528 
	C69.527107,33.569878 105.118980,54.032963 140.576172,74.726280 
	C150.021301,80.238586 152.191971,89.433235 146.679550,100.007187 
M140.077454,96.424538 
	C144.228134,90.158241 143.180664,84.676750 136.796204,80.876991 
	C126.372223,74.673111 115.842567,68.646675 105.352066,62.554737 
	C80.347450,48.034302 55.361240,33.481964 30.320803,19.023558 
	C22.168978,14.316675 14.043711,18.456018 14.024756,27.405642 
	C13.936578,69.042236 13.958892,110.679169 14.012614,152.315887 
	C14.021579,159.263580 17.931492,162.849823 25.698496,162.904266 
	C27.653542,162.016098 29.700783,161.287140 31.549980,160.216202 
	C65.970970,140.281845 100.372704,120.314194 134.757904,100.318153 
	C136.458649,99.329117 137.972244,98.018250 140.077454,96.424538 
z"/>
<path fill="#FCFCFC" opacity="1.000000" stroke="none" 
	d="
M974.382202,164.542175 
	C973.109131,159.962692 971.291382,155.688278 971.208496,151.380493 
	C970.872131,133.904510 971.068726,116.418289 971.068604,98.935852 
	C971.068604,97.289406 971.068604,95.642952 971.068604,93.801918 
	C968.981079,93.606567 967.213135,93.441116 965.166321,93.249573 
	C965.166321,87.723282 965.166321,82.303696 965.166321,76.329353 
	C966.802856,76.247513 968.559448,76.159668 970.922607,76.041496 
	C970.922607,69.564293 970.922607,63.038307 970.922607,56.307274 
	C978.587158,56.307274 985.647766,56.307274 993.134644,56.307274 
	C993.134644,62.958733 993.134644,69.381470 993.134644,75.944687 
	C995.345825,76.089439 997.143188,76.207108 999.330200,76.350273 
	C999.330200,81.775215 999.330200,87.183334 999.330200,93.092422 
	C997.552673,93.317902 995.498596,93.578461 993.161499,93.874908 
	C993.161499,111.941528 993.033752,129.908340 993.375793,147.866226 
	C993.407104,149.509415 996.444458,151.095352 998.085999,152.707855 
	C998.536926,152.366959 998.987915,152.026047 999.438843,151.685135 
	C999.438843,156.608414 999.438843,161.531708 999.438843,166.926895 
	C991.009827,168.086090 982.541626,170.732285 974.382202,164.542175 
z"/>
<path fill="#F6F6F6" opacity="1.000000" stroke="none" 
	d="
M360.539581,115.000259 
	C360.539551,132.628342 360.539551,149.756409 360.539551,167.206360 
	C352.738525,167.206360 345.348846,167.206360 337.654114,167.206360 
	C337.654114,130.125977 337.654114,93.209198 337.654114,55.880081 
	C344.970612,55.880081 352.367859,55.880081 360.539612,55.880081 
	C360.539612,75.338516 360.539612,94.919388 360.539581,115.000259 
z"/>
<path fill="#FCFCFC" opacity="1.000000" stroke="none" 
	d="
M305.195648,81.999924 
	C305.195648,73.035057 305.195648,64.570183 305.195648,55.802837 
	C312.960785,55.802837 320.374878,55.802837 328.012634,55.802837 
	C328.012634,92.990547 328.012634,130.033524 328.012634,167.290329 
	C320.472076,167.290329 313.197388,167.290329 305.195648,167.290329 
	C305.195648,138.930862 305.195648,110.715401 305.195648,81.999924 
z"/>
<path fill="#1E1E1E" opacity="1.000000" stroke="none" 
	d="
M211.923218,134.881638 
	C211.740707,137.828110 211.969269,140.417191 211.291122,142.741745 
	C209.833496,147.738327 205.822418,148.219727 201.193390,147.763794 
	C201.193390,137.091431 201.193390,126.664421 201.193390,116.216774 
	C208.093506,114.425713 211.186951,116.418884 211.781876,123.450104 
	C212.088974,127.079521 211.892334,130.751556 211.923218,134.881638 
z"/>
<path fill="#1C1C1C" opacity="1.000000" stroke="none" 
	d="
M206.456543,97.905792 
	C204.531693,97.965561 203.042572,97.965561 201.267639,97.965561 
	C201.267639,89.871666 201.267639,81.830360 201.266571,73.787613 
	C208.476105,72.366028 210.328125,73.774422 210.361938,80.847511 
	C210.380142,84.654510 210.607315,88.514481 210.052338,92.248322 
	C209.758224,94.227066 207.993240,95.987190 206.456543,97.905792 
z"/>
<path fill="#1F1F1F" opacity="1.000000" stroke="none" 
	d="
M681.137634,112.000931 
	C681.108459,122.326454 681.205505,132.155045 680.983154,141.976425 
	C680.903015,145.515015 681.116333,150.270462 676.255310,150.593567 
	C670.918396,150.948257 670.600281,145.957977 670.536133,142.304886 
	C670.267212,126.992355 670.369263,111.673065 670.386414,96.356308 
	C670.387695,95.210800 670.434814,93.775307 671.082458,92.982635 
	C672.322632,91.464661 673.976624,89.336800 675.521423,89.283867 
	C677.049011,89.231522 679.772461,91.234650 680.020569,92.672707 
	C680.859680,97.535957 680.850098,102.547600 681.126404,107.504669 
	C681.200439,108.832909 681.137634,110.168777 681.137634,112.000931 
z"/>
<path fill="#1A1A1A" opacity="1.000000" stroke="none" 
	d="
M552.466736,132.994125 
	C552.452026,136.989517 552.564941,140.492874 552.386414,143.981339 
	C552.211182,147.403366 551.798096,151.013535 547.114929,150.923065 
	C542.558899,150.835022 541.977356,147.412277 541.950073,143.885742 
	C541.888245,135.892700 541.922119,127.898918 541.920166,119.905434 
	C541.918396,112.578049 541.904114,105.250595 541.934814,97.923340 
	C541.941040,96.430458 541.590332,94.541443 542.341431,93.533195 
	C543.670593,91.749046 545.617859,89.549278 547.500549,89.349236 
	C548.846924,89.206177 551.111023,91.794785 551.871399,93.620354 
	C552.717346,95.651154 552.438049,98.198349 552.447815,100.521591 
	C552.492554,111.179420 552.467041,121.837555 552.466736,132.994125 
z"/>
<path fill="#191919" opacity="1.000000" stroke="none" 
	d="
M863.615723,122.999779 
	C863.615479,114.673561 863.592163,106.847244 863.632141,99.021233 
	C863.641479,97.196121 863.339905,95.091415 864.125549,93.619217 
	C865.089294,91.813354 867.183533,89.210571 868.537720,89.352341 
	C870.415833,89.548958 872.149353,91.890884 873.747986,93.508774 
	C874.205200,93.971458 874.057922,95.106758 874.058899,95.933800 
	C874.077515,112.085449 874.077759,128.237122 874.076965,144.388794 
	C874.076965,144.887558 874.227173,145.573044 873.965881,145.854614 
	C872.338440,147.608353 870.865906,150.210129 868.862793,150.748871 
	C865.720520,151.594025 863.983398,148.932526 863.888794,145.967529 
	C863.650024,138.482986 863.688354,130.989624 863.615723,122.999779 
z"/>
<path fill="#202020" opacity="1.000000" stroke="none" 
	d="
M273.903320,138.875061 
	C273.802582,141.674927 274.306976,144.263474 273.428314,146.235962 
	C272.575134,148.151321 270.123444,150.836334 268.697327,150.653885 
	C266.749054,150.404648 264.879944,147.937241 263.434387,146.067078 
	C262.763428,145.199020 263.102692,143.496902 263.101196,142.172760 
	C263.084686,127.543434 263.027283,112.913605 263.134125,98.285034 
	C263.162689,94.373207 262.796051,89.768982 268.356506,89.073296 
	C272.040924,88.612328 273.873993,91.888062 273.891357,98.495987 
	C273.926270,111.795311 273.902740,125.094795 273.903320,138.875061 
z"/>
<path fill="#202020" opacity="1.000000" stroke="none" 
	d="
M614.141846,89.724678 
	C615.302795,92.217110 616.809021,94.485603 616.839905,96.774025 
	C617.051086,112.416023 617.021973,128.062912 616.867737,143.706207 
	C616.847961,145.718216 616.125366,148.081100 614.908875,149.643341 
	C612.857300,152.278091 608.434509,151.343002 607.127502,148.135605 
	C606.458313,146.493500 606.216248,144.576538 606.207947,142.781799 
	C606.138428,127.802963 606.110474,112.823349 606.193420,97.844650 
	C606.233215,90.659515 608.136230,88.714775 614.141846,89.724678 
z"/>
<path fill="#FE3131" opacity="1.000000" stroke="none" 
	d="
M139.572968,96.857239 
	C137.972244,98.018250 136.458649,99.329117 134.757904,100.318153 
	C100.372704,120.314194 65.970970,140.281845 31.549980,160.216202 
	C29.700783,161.287140 27.653542,162.016098 25.329063,162.408859 
	C24.960033,126.247780 24.934395,90.582077 24.975094,54.916454 
	C24.989166,42.583961 35.656338,36.411510 46.396767,42.510284 
	C55.518417,47.689865 64.571693,52.990585 73.629524,58.281696 
	C95.618637,71.126579 117.592789,83.997063 139.572968,96.857239 
z"/>
<path fill="#1B1A1A" opacity="1.000000" stroke="none" 
	d="
M139.825211,96.640884 
	C117.592789,83.997063 95.618637,71.126579 73.629524,58.281696 
	C64.571693,52.990585 55.518417,47.689865 46.396767,42.510284 
	C35.656338,36.411510 24.989166,42.583961 24.975094,54.916454 
	C24.934395,90.582077 24.960033,126.247780 24.965694,162.370819 
	C17.931492,162.849823 14.021579,159.263580 14.012614,152.315887 
	C13.958892,110.679169 13.936578,69.042236 14.024756,27.405642 
	C14.043711,18.456018 22.168978,14.316675 30.320803,19.023558 
	C55.361240,33.481964 80.347450,48.034302 105.352066,62.554737 
	C115.842567,68.646675 126.372223,74.673111 136.796204,80.876991 
	C143.180664,84.676750 144.228134,90.158241 139.825211,96.640884 
z"/>
</svg>